<svg xmlns="http://www.w3.org/2000/svg" width="180" height="180" viewBox="0 0 180 180">
  <defs>
    <linearGradient id="g" x1="0" y1="0" x2="180" y2="180">
      <stop offset="0%" stop-color="#3ecf8e"/>
      <stop offset="100%" stop-color="#22c55e"/>
    </linearGradient>
  </defs>
  <rect width="180" height="180" rx="36" fill="#0a0a0a"/>
  <path d="M90 20c-18 30-30 57-30 84 0 18 12 36 30 48 18-12 30-30 30-48 0-27-12-54-30-84z" fill="none" stroke="url(#g)" stroke-width="8"/>
  <rect x="82" y="128" width="16" height="38" rx="8" fill="#3ecf8e" opacity="0.6"/>
  <path d="M60 108c0-12 12-24 30-24s30 12 30 24" fill="none" stroke="#3ecf8e" stroke-width="6" opacity="0.5"/>
  <circle cx="90" cy="70" r="14" fill="#3ecf8e"/>
  <path d="M54 56l20 12M126 56l-20 12M54 82l14-8M126 82l-14-8" stroke="#3ecf8e" stroke-width="5" stroke-linecap="round" opacity="0.4"/>
</svg>
